<svg xmlns="http://www.w3.org/2000/svg" xmlns:xlink="http://www.w3.org/1999/xlink" version="1.1" x="0px" y="0px" viewBox="0 0 256 256" enable-background="new 0 0 256 256" xml:space="preserve">
<metadata fill="#ce2028"> Svg Vector Icons : http://www.onlinewebfonts.com/icon </metadata>
<g><g><g><path fill="#ce2028" d="M133.5,73.9v3h1.6c2.8,0,12.3,1.4,17.2,2.5l4.7,1.1l0.7-2.8c0.5-1.9,0.6-2.9,0.2-3.1c-1.6-1-17.3-3.6-21.9-3.6h-2.4V73.9L133.5,73.9z"/><path fill="#ce2028" d="M103.8,73.1c-9.6,2.2-21.4,6.5-29.8,10.8c-16.4,8.5-31.9,22.3-43,38.4c-1.7,2.5-3.3,4.6-3.5,4.7c-0.8,0.3-5.5,9.4-7.9,15.1c-5.4,12.9-8.3,25-9.3,38.8l-0.3,4.3h3h3l0.3-3.1c1.2-11.7,2.7-19.4,5.8-29.1c3.2-9.9,10.3-23.2,17.4-32.4c15.7-20.6,40.3-36,65.7-41.1c4.3-0.8,4.1-0.6,3.6-4.5l-0.3-2.1l-1.9,0C105.6,72.8,104.3,72.9,103.8,73.1z"/><path fill="#ce2028" d="M180.8,85.9c-0.7,1.4-1.2,2.7-1.2,2.9c0,0.2,1.2,1,2.7,1.8c3.4,1.8,10.5,6.4,14,9.1c1.4,1.1,2.7,2,2.8,2c0.1,0,1.1-1,2.2-2.3l1.9-2.3l-4.3-3.2c-4.2-3.1-9.3-6.4-14.2-9.2l-2.5-1.4L180.8,85.9z"/><path fill="#ce2028" d="M218,117.1c-2.3,2-2.3,2-1.5,3.1c2.8,3.8,8.5,12.6,9.5,14.7c2.3,4.5,2.2,4.4,5.2,2.9c1.4-0.7,2.6-1.4,2.6-1.6c0-1.3-11.9-20-13.3-20.9C220.4,115.3,219.2,116.1,218,117.1z"/><path fill="#ce2028" d="M164.3,143l-31.1,21.8l-1.3-0.7c-1.8-1-5.8-0.9-7.9,0.2c-7.7,3.9-5.2,15.8,3.4,16.5c5.3,0.4,9.4-3.4,9.4-8.6v-2.6l30.9-21.6c17-11.9,30.9-21.8,31.1-22c0.2-0.4-2.2-4.3-2.9-4.7C195.6,121.3,181.4,131,164.3,143z M129.9,170.2c0.5,0.4,0.8,1.2,0.8,1.8c0,1.3-1.5,2.9-2.8,2.9c-0.5,0-1.3-0.4-1.8-0.9C123.6,171.5,127.2,167.8,129.9,170.2z"/><path fill="#ce2028" d="M239.3,161c-2.1,0.6-2.6,0.9-2.4,1.5c0.9,2.9,3,18.5,3,22c0,0.4,0.9,0.6,3,0.6h3.1l-0.3-4.5c-0.6-8-2.7-20.4-3.4-20.3C242.1,160.3,240.8,160.6,239.3,161z"/></g></g></g>
</svg>