<svg xmlns="http://www.w3.org/2000/svg" xmlns:xlink="http://www.w3.org/1999/xlink" version="1.1" x="0px" y="0px" viewBox="0 0 256 256" enable-background="new 0 0 256 256" xml:space="preserve">
<metadata fill="#ce2028"> Svg Vector Icons : http://www.onlinewebfonts.com/icon </metadata>
<g><g><path fill="#ce2028" d="M128.2,25.1"/><path fill="#ce2028" d="M128.2,10c-48.9,0-88.6,39.8-88.6,88.6c0,67.5,81.4,114.1,84.9,116c1.2,0.7,2.4,1,3.7,1c1.3,0,2.6-0.3,3.7-1c3.5-1.9,84.9-48.6,84.9-116C216.8,49.8,177,10,128.2,10z M128.2,136.5c-21.8,0-39.5-17.7-39.5-39.5c0-21.8,17.7-39.5,39.5-39.5c21.8,0,39.5,17.7,39.5,39.5C167.7,118.8,150,136.5,128.2,136.5z"/><path fill="#ce2028" d="M128.2,72.6"/><path fill="#ce2028" d="M128,166.3c-59.1,0-107,17.8-107,39.9S68.9,246,128,246s107-17.8,107-39.9S187.1,166.3,128,166.3z M128,229.9c-49,0-88.7-10.6-88.7-23.8c0-13.1,39.7-23.8,88.7-23.8c49,0,88.7,10.6,88.7,23.8C216.7,219.3,177,229.9,128,229.9z"/></g></g>
</svg>