<svg version="1.1" id="Layer_1" xmlns="http://www.w3.org/2000/svg" xmlns:xlink="http://www.w3.org/1999/xlink" x="0px" y="0px" width="100%" viewBox="0 0 1024 1024" enable-background="new 0 0 1024 1024" xml:space="preserve">

<path fill="#CE2028" opacity="1.000000" stroke="none" d="
M508.692566,144.693253 
	C508.881348,147.443939 508.928375,149.898865 508.903290,152.811554 
	C508.083832,163.801804 508.677429,174.347061 508.680786,185.311798 
	C508.889008,214.819992 508.954651,243.901657 508.999512,272.983337 
	C509.015656,283.453888 508.981873,293.924530 508.899963,304.882507 
	C508.089081,320.711334 508.700073,336.062439 508.500000,351.860504 
	C508.516388,357.843384 508.466614,363.373627 508.657654,369.318237 
	C508.858154,379.890228 508.790039,390.051636 509.078522,400.202850 
	C509.166443,403.297791 507.438843,402.929047 505.791992,402.524689 
	C504.099884,402.109161 502.381134,401.367767 500.955353,400.367767 
	C482.879578,387.689728 463.801575,376.579987 445.288879,364.589874 
	C442.019165,362.472198 442.001953,358.383484 442.001648,354.716370 
	C441.999359,327.727905 442.021179,300.739410 441.954193,273.751129 
	C441.949585,271.903900 443.064026,269.303802 441.028961,268.320740 
	C438.779938,267.234344 437.669189,269.918823 436.353851,271.226166 
	C420.166473,287.315521 404.227173,303.660065 387.805298,319.505005 
	C381.545929,325.544403 375.651093,331.940338 369.083893,337.726532 
	C359.168884,346.462402 350.331665,356.410522 340.802368,365.600769 
	C337.175507,369.098633 341.091339,369.750671 342.527954,370.710236 
	C357.760345,380.884155 373.123108,390.862518 388.424286,400.933777 
	C410.777130,415.646454 433.131378,430.357269 455.442291,445.133423 
	C471.519806,455.781189 487.407288,466.721588 503.631470,477.139099 
	C509.368683,480.822968 509.223053,486.221069 508.895966,491.387512 
	C507.307098,516.481384 508.432556,541.592041 507.911255,566.685364 
	C507.789825,572.531189 509.341309,578.203552 508.986298,584.003540 
	C506.992279,616.581787 508.372772,649.192200 508.055176,681.786011 
	C507.982727,689.221558 509.576660,696.621521 508.901947,704.564697 
	C508.081177,717.710754 508.704681,730.404236 508.500000,743.542908 
	C508.514740,745.768311 508.465271,747.541870 508.688843,749.727051 
	C508.894470,788.466980 508.948334,826.794434 509.001434,865.121887 
	C509.003265,866.438293 509.132324,867.622620 507.381195,868.263489 
	C505.752441,868.859558 505.249146,867.706543 504.517120,866.994080 
	C489.967163,852.832703 475.277557,838.807068 461.046082,824.331360 
	C457.412170,820.635193 453.825562,816.595093 450.378326,812.738586 
	C447.061493,809.027771 442.818298,805.341187 438.787994,801.902283 
	C430.449677,794.787415 423.080292,786.536194 415.332886,778.731995 
	C414.889740,778.285583 414.759186,777.412354 414.264740,777.151245 
	C409.252319,774.504150 406.542847,769.548767 403.379486,765.345581 
	C401.008514,762.195190 397.382446,761.496033 394.855774,758.649231 
	C391.777374,755.180969 389.407440,751.191589 385.831207,747.919739 
	C371.249573,734.578979 356.740356,721.128113 343.413605,706.436646 
	C339.895477,702.558289 336.221436,698.421021 331.816406,695.249939 
	C330.747589,694.480469 329.769592,693.500305 328.977570,692.445923 
	C325.965271,688.435974 322.295990,685.177246 318.621521,681.757385 
	C305.626007,669.662354 292.667084,657.385498 281.095215,643.969299 
	C276.047974,638.117615 270.262939,632.886414 264.954742,627.575500 
	C252.412277,615.026794 239.282471,602.979614 226.892838,590.236816 
	C217.856171,580.942566 208.654694,571.801270 199.642563,562.481995 
	C188.196411,550.645630 176.303635,539.221985 164.698517,527.516724 
	C152.610962,515.324951 140.163513,503.462585 127.868614,491.460754 
	C124.524460,488.196259 124.787148,485.498871 127.962753,482.518127 
	C136.439896,474.561005 144.265076,465.954987 152.976196,458.198761 
	C157.909027,453.806641 162.691483,449.051666 167.143402,444.125488 
	C170.669052,440.224335 172.914200,441.313171 175.926529,444.364838 
	C187.165710,455.750763 198.455017,467.089081 209.852753,478.316071 
	C221.958969,490.240906 234.304626,501.923492 246.361908,513.896973 
	C253.604446,521.089111 260.063202,529.119446 267.655640,535.897827 
	C276.849670,544.106018 285.353607,552.968201 294.059052,561.638916 
	C303.797394,571.338379 312.808167,581.801941 322.894226,591.110901 
	C337.774231,604.844543 352.016144,619.211243 366.057007,633.750732 
	C383.199310,651.501709 401.454559,668.121643 418.283234,686.198364 
	C425.495056,693.945007 432.750488,701.869324 441.399902,708.370972 
	C442.410217,706.761353 441.976288,705.243591 441.976929,703.818481 
	C442.003845,643.155396 441.986206,582.492371 442.038849,521.829346 
	C442.041626,518.633789 441.402893,516.562866 438.317993,514.589111 
	C415.289337,499.855103 392.207916,485.178375 369.639130,469.757568 
	C343.951782,452.205841 317.761871,435.431610 291.747925,418.390106 
	C272.010315,405.460144 252.197128,392.641632 232.277222,379.159363 
	C243.115997,368.972229 253.117325,357.702362 264.428253,347.690247 
	C269.327393,343.353699 273.822937,338.447845 278.350861,333.726013 
	C291.649445,319.857849 305.265228,306.313354 318.811951,292.697906 
	C339.508087,271.896729 360.295227,251.186066 381.044342,230.437576 
	C416.101501,195.381470 451.159058,160.325745 486.216736,125.270172 
	C492.086304,119.400955 497.968750,113.544518 503.821899,107.658974 
	C505.890839,105.578606 506.630585,105.218552 507.801056,108.751907 
	C508.614563,111.207672 508.838562,113.465469 508.890656,116.330338 
	C508.277069,118.096748 508.452820,119.437782 508.771179,121.112450 
	C508.994934,121.669998 509.043579,121.915176 508.921082,122.356110 
	C508.116364,127.622147 508.655731,132.738159 508.679321,138.239594 
	C508.867889,138.843048 508.907013,139.047241 508.893616,139.558868 
	C508.220673,141.343155 508.573425,142.882339 508.692566,144.693253 
z" data-index="1"></path>
<path fill="#CE2028" opacity="1.000000" stroke="none" d="
M688.685913,448.549194 
	C688.893921,483.660522 688.961426,518.318787 689.002930,552.976990 
	C689.026428,572.634033 689.007141,592.291077 689.007141,611.948669 
	C691.871643,612.611572 693.012085,610.435059 694.447510,609.005798 
	C708.095398,595.416077 721.694702,581.777527 735.312805,568.157837 
	C751.214172,552.254639 767.122314,536.358276 783.023987,520.455383 
	C800.396790,503.081329 817.723450,485.660889 835.153870,468.344788 
	C843.767822,459.787323 852.299683,451.160797 860.425598,442.133850 
	C862.260437,440.095551 864.233032,440.671356 866.017029,442.468872 
	C877.986145,454.528351 889.958130,466.584961 901.944763,478.626953 
	C903.896790,480.587982 905.934021,482.463959 907.917847,484.393646 
	C909.868408,486.290741 910.063171,488.319305 908.149841,490.329071 
	C903.628113,495.078552 898.439758,499.077057 893.508362,503.369690 
	C890.171326,506.274475 886.896545,509.527222 884.537842,513.226257 
	C878.098389,523.325012 868.530090,530.362183 860.423950,538.812073 
	C853.045471,546.503418 844.670532,553.189392 837.802734,561.434937 
	C834.244202,565.707214 830.127991,569.534485 826.101685,573.393738 
	C816.145752,582.936523 806.461731,592.762634 796.565247,602.362915 
	C787.385376,611.268005 778.279358,620.335938 769.474609,629.685913 
	C756.132874,643.854065 742.148987,657.447510 727.998413,670.865173 
	C711.594543,686.419373 696.274109,703.111206 680.302307,719.128601 
	C673.393860,726.056824 666.163330,732.719482 659.296936,739.644043 
	C648.996277,750.031982 638.782593,760.536011 628.491333,770.949524 
	C627.494690,771.958130 626.941833,774.026855 624.614502,773.232727 
	C621.953247,772.324707 623.040283,770.207947 623.039917,768.628723 
	C622.991943,580.824402 622.997375,393.020111 623.005554,205.215820 
	C623.005615,204.052765 622.759766,202.739105 623.210754,201.765381 
	C623.755249,200.589981 624.396362,198.921387 626.243225,201.277420 
	C628.936340,204.713058 632.216125,207.697678 635.317139,210.803284 
	C650.976501,226.485565 666.839783,241.969528 682.263489,257.879852 
	C691.058594,266.952484 699.874084,276.065063 708.879395,284.867554 
	C720.881775,296.599518 732.843018,308.393036 744.645142,320.321106 
	C751.343750,327.091278 757.921021,334.108887 764.733765,340.678955 
	C775.904968,351.452301 787.179626,362.154999 798.393677,372.904449 
	C804.040466,378.317261 808.497681,384.881958 814.898132,389.613251 
	C816.555603,390.838531 815.686218,393.003540 814.075867,394.458069 
	C809.534485,398.559998 805.285828,403.045380 800.403564,406.684204 
	C798.125244,408.382294 796.329224,410.612793 794.691345,412.512787 
	C787.782593,420.527283 779.207153,426.727814 771.990479,434.367645 
	C770.614685,435.824219 770.265991,439.673920 765.564636,435.056305 
	C755.616821,425.285889 744.909119,416.162750 734.830566,406.410065 
	C721.100159,393.123718 707.177551,380.036041 693.339111,366.861298 
	C692.393555,365.961060 691.564270,364.624237 690.016785,365.185272 
	C688.281433,365.814453 689.064697,367.466309 689.040649,368.650238 
	C688.935852,373.814087 688.975098,378.980835 688.895264,384.616211 
	C688.086670,395.655853 688.615601,406.239136 688.524536,416.815613 
	C688.434692,427.241516 688.454590,437.669250 688.685913,448.549194 
z" data-index="2"></path>
<path fill="#CE2028" opacity="1.000000" stroke="none" d="
M599.000000,659.000000 
	C599.000000,704.992371 598.969666,750.484802 599.064331,795.976990 
	C599.071045,799.206055 598.167053,801.479614 595.846558,803.766235 
	C581.247864,818.151794 566.830444,832.721130 552.300415,847.176697 
	C545.686279,853.756897 539.990051,861.227539 532.393188,867.822876 
	C532.393188,614.116272 532.393188,361.000702 532.393188,107.677841 
	C535.494690,108.518646 536.097168,111.684021 537.991333,113.556221 
	C551.321838,126.731873 564.509827,140.051819 577.839050,153.228790 
	C583.716675,159.039291 589.707092,164.747726 595.869385,170.252670 
	C598.523682,172.623749 599.059937,175.236435 599.058533,178.581848 
	C598.991455,338.554535 599.000000,498.527283 599.000000,659.000000 
z" data-index="3"></path>
<path fill="#D1343C" opacity="1.000000" stroke="none" d="
M688.904663,448.536743 
	C688.567871,447.708954 688.065674,446.415955 688.064026,445.122314 
	C688.039612,426.178894 688.076355,407.235352 688.127686,388.291931 
	C688.129883,387.476776 688.414001,386.662415 688.697571,385.466797 
	C688.876282,406.080994 688.924194,427.076080 688.904663,448.536743 
z" data-index="4"></path>
<path fill="#D58085" opacity="1.000000" stroke="none" d="
M508.305786,353.317322 
	C508.699463,337.349182 506.877747,321.712402 508.747070,305.742584 
	C508.889343,320.935883 508.949677,336.501862 508.921875,352.528656 
	C508.709778,353.217865 508.585724,353.446320 508.305786,353.317322 
z" data-index="5"></path>
<path fill="#D5868A" opacity="1.000000" stroke="none" d="
M508.255798,745.313965 
	C508.002014,731.839355 507.614014,718.779175 508.610535,705.377930 
	C508.879547,718.039246 508.927612,731.049316 508.905212,744.522461 
	C508.684326,745.233704 508.533936,745.481873 508.255798,745.313965 
z" data-index="6"></path>
<path fill="#D47A7F" opacity="1.000000" stroke="none" d="
M508.900391,185.295044 
	C506.735748,179.320297 508.718109,172.731689 508.038940,166.227600 
	C507.617737,162.194626 507.457947,158.029541 508.671448,153.627533 
	C508.877167,163.796799 508.923157,174.324280 508.900391,185.295044 
z" data-index="7"></path>
<path fill="#D46E73" opacity="1.000000" stroke="none" d="
M508.168304,353.429901 
	C508.149963,352.959900 508.491852,352.975128 508.662842,352.982300 
	C508.872162,358.359650 508.910492,363.729889 508.869019,369.416443 
	C506.646667,364.529053 508.819946,359.161072 508.168304,353.429901 
z" data-index="8"></path>
<path fill="#D47F84" opacity="1.000000" stroke="none" d="
M508.867798,138.201797 
	C507.378143,133.550888 507.806213,128.394989 508.559570,122.885124 
	C508.867310,127.609932 508.887054,132.687347 508.867798,138.201797 
z" data-index="9"></path>
<path fill="#D47F84" opacity="1.000000" stroke="none" d="
M508.913361,121.043350 
	C507.615540,120.128250 507.975677,118.726074 508.717987,117.042389 
	C508.866699,118.065201 508.922302,119.353867 508.913361,121.043350 
z" data-index="10"></path>
<path fill="#D2545B" opacity="1.000000" stroke="none" d="
M508.901978,144.568100 
	C507.877625,143.542831 507.986664,142.014908 508.663910,140.161652 
	C508.883942,141.293259 508.926788,142.720230 508.901978,144.568100 
z" data-index="11"></path>
<path fill="#D2545B" opacity="1.000000" stroke="none" d="
M508.103455,745.281860 
	C508.128082,744.897827 508.481110,744.943970 508.657898,744.964722 
	C508.880005,746.416260 508.925293,747.846985 508.905640,749.708618 
	C507.977753,748.752075 508.061798,747.203308 508.103455,745.281860 
z" data-index="12"></path>
</svg>