<svg xmlns="http://www.w3.org/2000/svg" xmlns:xlink="http://www.w3.org/1999/xlink" version="1.1" x="0px" y="0px" viewBox="0 0 256 256" enable-background="new 0 0 256 256" xml:space="preserve">
<metadata fill="#ce2028"> Svg Vector Icons : http://www.onlinewebfonts.com/icon </metadata>
<g><g><path fill="#ce2028" d="M122,128c0,3.3,2.7,6,6,6s6-2.7,6-6c0-3.3-2.7-6-6-6S122,124.7,122,128L122,128z"/><path fill="#ce2028" d="M128,113.3c-0.9,0-1.8,0.1-2.6,0.2l-23.1-21.4c-1.5-1.6-4.3-1.5-6.2,0.2c-2,1.8-2.4,4.5-0.9,6.2l18.7,25.3c-0.4,1.3-0.6,2.7-0.6,4.2c0,2.1,0.5,4.2,1.3,6l-24.3,36.5c-1.3,1.8-0.7,4.5,1.4,6.1c2.1,1.6,4.9,1.5,6.2-0.3l29.1-33.6c0.3,0,0.7,0,1,0c8.1,0,14.7-6.6,14.7-14.7C142.7,119.9,136.1,113.3,128,113.3z M128,138.1c-5.6,0-10.1-4.5-10.1-10.1c0-5.6,4.5-10.1,10.1-10.1c5.6,0,10.1,4.5,10.1,10.1C138.1,133.6,133.6,138.1,128,138.1z"/><path fill="#ce2028" d="M221.8,138.4c0.1-0.6,0.1-1.2,0.1-1.8c0.2-1.8,0.3-3.5,0.3-5.3c0,0,0-0.1,0-0.2c0-0.1,0-0.2,0-0.3c0-1,0.1-1.9,0.1-2.9c0-0.8-0.1-1.6-0.1-2.4c0-0.2,0-0.5,0-0.7c0-0.1,0-0.3,0-0.4c0-1.8-0.2-3.6-0.3-5.4c0-0.5,0-1-0.1-1.4l23.4-17.2c0.9-0.7,1.1-1.9,0.6-2.9l-32.8-56.6c-0.6-1-1.8-1.3-2.7-0.9l-26.6,11.7c-0.7-0.5-1.4-0.9-2.2-1.4c-0.4-0.3-0.9-0.6-1.3-0.9c-0.8-0.6-1.7-1.1-2.5-1.7c-0.6-0.3-1.2-0.7-1.8-1c-0.2-0.1-0.3-0.2-0.5-0.3c-0.2-0.1-0.5-0.2-0.7-0.4c-1.3-0.7-2.7-1.5-4.1-2.2c-0.1,0-0.2-0.1-0.3-0.1c0,0,0,0,0,0c-0.2-0.1-0.4-0.2-0.6-0.3c-0.5-0.2-0.9-0.5-1.4-0.7c-0.7-0.4-1.5-0.7-2.2-1.1l-3.2-28.9c-0.1-1.1-1.1-1.9-2.2-1.9H95.3c-1.1,0-2,0.8-2.2,1.9l-3.2,28.8c-0.2,0.1-0.4,0.2-0.6,0.3c-1.7,0.8-3.4,1.6-5.1,2.5c-0.3,0.2-0.6,0.3-0.9,0.5c-0.9,0.5-1.8,0.9-2.7,1.4c-0.7,0.4-1.3,0.9-2,1.3c-0.5,0.3-0.9,0.6-1.3,0.8c-1.6,1-3.1,2-4.6,3.1c-0.1,0-0.1,0.1-0.2,0.1L45.9,40.1c-1-0.5-2.2-0.1-2.8,0.9L10.3,97.5c-0.6,1-0.3,2.2,0.6,2.8l23.3,17.3c0,0.1,0,0.3,0,0.4c0,0.4,0,0.8-0.1,1.2c-0.1,1.1-0.2,2.1-0.2,3.2c0,0.7-0.1,1.5-0.1,2.3c0,0.6,0,1.2,0,1.8c0,0.5,0,1,0,1.4c0,0.6,0,1.1,0,1.7s0,1.1,0,1.7c0,0.6,0,1.1,0.1,1.6c0,1.1,0.1,2.1,0.2,3.2c0,0.2,0,0.4,0,0.6c0,0.4,0,0.8,0.1,1.3c0,0.1,0,0.3,0,0.4l-23.3,17.3c-0.9,0.7-1.2,1.9-0.6,2.8l32.8,56.6c0.6,0.9,1.7,1.3,2.8,0.9l26.5-11.7c0,0,0.1,0.1,0.1,0.1c1.6,1.2,3.3,2.3,5.1,3.4c0.2,0.1,0.4,0.3,0.6,0.4c0.8,0.5,1.5,1,2.3,1.4c2.9,1.6,5.8,3.1,8.8,4.4c0.2,0.1,0.4,0.2,0.6,0.3l3.2,28.8c0.1,1.1,1.1,1.9,2.2,1.9h65.4c1.1,0,2-0.8,2.2-1.9l3.2-28.8c0.6-0.3,1.2-0.6,1.8-0.9c0.8-0.4,1.6-0.7,2.4-1.2v0c0.6-0.3,1.1-0.6,1.6-0.9c0.2-0.1,0.5-0.3,0.7-0.4c0.2-0.1,0.5-0.2,0.7-0.4c0.3-0.1,0.6-0.3,0.8-0.4c0,0,0,0,0,0c0.4-0.2,0.8-0.4,1.2-0.6c0.2-0.1,0.3-0.2,0.5-0.3c1.4-0.8,2.8-1.7,4.1-2.6c0.5-0.3,0.9-0.6,1.4-0.9c0.7-0.5,1.5-0.9,2.2-1.4l26.6,11.7c1,0.4,2.2,0,2.7-0.9l32.8-56.6c0.6-1,0.3-2.2-0.6-2.9L221.8,138.4z M189.1,133.9h15c-1.4,18.7-9.6,35.5-22.1,48c-12.7,12.7-29.8,20.9-48.9,22.2v-14.2c0-3.1-2.5-5.7-5.7-5.7c-3.1,0-5.7,2.5-5.7,5.7v14.1c-18.6-1.5-35.3-9.6-47.7-22.1c-12.5-12.5-20.7-29.3-22.1-48h13.8c3.1,0,5.7-2.5,5.7-5.7c0-3.1-2.5-5.7-5.7-5.7H51.9c1.3-19,9.5-35.9,22.2-48.6c12.4-12.5,29.1-20.6,47.7-22.1v14.7c0,3.1,2.5,5.7,5.7,5.7c3.1,0,5.7-2.5,5.7-5.7V51.9c19,1.3,36.2,9.5,48.9,22.2c12.6,12.6,20.8,29.6,22.1,48.6h-15.1c-3.1,0-5.7,2.5-5.7,5.6C183.4,131.4,185.9,133.9,189.1,133.9z"/></g></g>
</svg>